HIERARCHY
ROOT joint_Root
{
	OFFSET 0.0 0.0 0.0
	CHANNELS 6 Xposition Yposition Zposition Zrotation Xrotation Yrotation 
	JOINT Hips
	{
		OFFSET -17.1583 93.1646 452.98
		CHANNELS 6 Xposition Yposition Zposition Zrotation Xrotation Yrotation 
		JOINT Spine
		{
			OFFSET 15.7357 0.0 0.0
			CHANNELS 6 Xposition Yposition Zposition Zrotation Xrotation Yrotation 
			JOINT Chest
			{
				OFFSET 8.98455 -0.406207 0.0
				CHANNELS 6 Xposition Yposition Zposition Zrotation Xrotation Yrotation 
				JOINT Neck
				{
					OFFSET 16.3773 0.0 0.0
					CHANNELS 6 Xposition Yposition Zposition Zrotation Xrotation Yrotation 
					JOINT Head
					{
						OFFSET 6.45672 0.0 0.0
						CHANNELS 6 Xposition Yposition Zposition Zrotation Xrotation Yrotation 
						End Site
						{
							OFFSET 0.0 0.0 0.0
						}
					}
				}
				JOINT Shoulder_L
				{
					OFFSET 12.9942 -0.242716 4.98039
					CHANNELS 6 Xposition Yposition Zposition Zrotation Xrotation Yrotation 
					JOINT UpperArm_L
					{
						OFFSET 5.34809 0.0 0.0
						CHANNELS 6 Xposition Yposition Zposition Zrotation Xrotation Yrotation 
						JOINT LowerArm_L
						{
							OFFSET 24.3286 1.87007e-05 0.0
							CHANNELS 6 Xposition Yposition Zposition Zrotation Xrotation Yrotation 
							JOINT Hand_L
							{
								OFFSET 22.2916 0.0 0.0
								CHANNELS 6 Xposition Yposition Zposition Zrotation Xrotation Yrotation 
								End Site
								{
									OFFSET 0.0 0.0 0.0
								}
							}
						}
					}
				}
				JOINT Shoulder_R
				{
					OFFSET 12.9945 -0.242716 -4.98039
					CHANNELS 6 Xposition Yposition Zposition Zrotation Xrotation Yrotation 
					JOINT UpperArm_R
					{
						OFFSET -5.34813 0.0 0.0
						CHANNELS 6 Xposition Yposition Zposition Zrotation Xrotation Yrotation 
						JOINT LowerArm_R
						{
							OFFSET -24.3289 0.000322201 0.0
							CHANNELS 6 Xposition Yposition Zposition Zrotation Xrotation Yrotation 
							JOINT Hand_R
							{
								OFFSET -22.2915 -0.000108084 0.0
								CHANNELS 6 Xposition Yposition Zposition Zrotation Xrotation Yrotation 
								End Site
								{
									OFFSET 0.0 0.0 0.0
								}
							}
						}
					}
				}
			}
		}
		JOINT UpperLeg_L
		{
			OFFSET -2.19248 -6.46944 0.0
			CHANNELS 6 Xposition Yposition Zposition Zrotation Xrotation Yrotation 
			JOINT LowerLeg_L
			{
				OFFSET 39.0811 0.0 -1.23785e-05
				CHANNELS 6 Xposition Yposition Zposition Zrotation Xrotation Yrotation 
				JOINT Foot_L
				{
					OFFSET 40.9854 0.0 -1.26872e-05
					CHANNELS 6 Xposition Yposition Zposition Zrotation Xrotation Yrotation 
					JOINT Toes_L
					{
						OFFSET 11.7543 0.0 0.0
						CHANNELS 6 Xposition Yposition Zposition Zrotation Xrotation Yrotation 
						End Site
						{
							OFFSET 0.0 0.0 0.0
						}
					}
				}
			}
		}
		JOINT UpperLeg_R
		{
			OFFSET -2.19251 6.46944 0.0
			CHANNELS 6 Xposition Yposition Zposition Zrotation Xrotation Yrotation 
			JOINT LowerLeg_R
			{
				OFFSET -39.0811 -0.00228153 -0.0401928
				CHANNELS 6 Xposition Yposition Zposition Zrotation Xrotation Yrotation 
				JOINT Foot_R
				{
					OFFSET -40.9854 0.0 0.0
					CHANNELS 6 Xposition Yposition Zposition Zrotation Xrotation Yrotation 
					JOINT Toes_R
					{
						OFFSET -11.7543 0.0 0.0
						CHANNELS 6 Xposition Yposition Zposition Zrotation Xrotation Yrotation 
						End Site
						{
							OFFSET 0.0 0.0 0.0
						}
					}
				}
			}
		}
	}
}
MOTION
Frames:	9
Frame Time:	0.0333333
0.000000 0.000000 0.000000 0.000000 0.000000 -0.000000 0.560941 93.200900 -0.592741 87.488300 -2.358580 -0.651980 15.735700 0.000005 -0.000001 81.071900 88.573200 -79.584800 8.984550 -0.406207 -0.000000 -4.937530 -0.607163 2.950400 16.377300 -0.000001 -0.000001 5.518770 3.851830 -3.265980 6.456720 -0.000001 -0.000000 6.758620 4.230160 -1.543150 12.994200 -0.242716 4.980390 -92.681100 8.078530 -71.570500 5.348090 -0.000007 -0.000001 -72.621100 31.835600 1.024210 24.328600 0.000019 0.000005 12.474700 27.753700 -25.411500 22.291600 -0.000001 0.000005 -3.233420 4.957840 8.203480 12.994500 -0.242716 -4.980390 88.439700 5.017480 -72.700600 -5.348130 -0.000001 -0.000004 -72.966800 29.454100 1.364270 -24.328900 0.000322 -0.000009 3.775490 8.152640 -24.960700 -22.291500 -0.000108 -0.000004 -0.274339 5.264790 1.038620 -2.192480 -6.469440 -0.000000 -178.119000 -3.484900 -2.606910 39.081100 -0.000007 -0.000012 0.146185 -0.490426 16.598400 40.985400 -0.000006 -0.000013 3.395780 8.402140 -70.332000 11.754300 -0.000000 0.000003 0.000235 0.163562 -9.943030 -2.192510 6.469440 -0.000001 -176.742000 4.788800 -179.253000 -39.081100 -0.002282 -0.040193 0.002778 0.002866 11.040300 -40.985400 0.000008 0.000006 -4.190480 3.864450 -67.174800 -11.754300 -0.000006 -0.000006 -0.010988 0.278543 -5.254850
0.000000 0.000000 0.000000 0.000000 0.000000 -0.000000 0.523450 93.206500 -0.648774 87.483000 -2.350510 -0.642807 15.735700 0.000005 -0.000001 80.016600 88.562600 -78.544100 8.984550 -0.406207 -0.000000 -4.924720 -0.660861 2.918910 16.377300 -0.000001 -0.000001 5.543360 3.851490 -3.271070 6.456720 -0.000001 -0.000000 6.594690 4.281530 -1.471850 12.994200 -0.242716 4.980390 -92.670400 8.035100 -71.547800 5.348090 -0.000007 -0.000001 -72.653900 31.675300 1.007620 24.328600 0.000019 0.000005 12.461400 27.796800 -25.355300 22.291600 -0.000001 0.000005 -3.226380 4.958850 8.182510 12.994500 -0.242716 -4.980390 88.423500 5.059050 -72.666200 -5.348130 -0.000001 -0.000004 -72.831500 28.298300 1.409830 -24.328900 0.000322 -0.000009 3.845220 7.997610 -25.790600 -22.291500 -0.000108 -0.000004 0.092024 5.266030 1.005320 -2.192480 -6.469440 -0.000000 -178.099000 -3.431230 -2.640770 39.081100 -0.000007 -0.000012 0.147720 -0.495037 16.615500 40.985400 -0.000006 -0.000013 3.367640 8.374110 -70.325500 11.754300 -0.000000 0.000003 0.000346 0.161589 -10.023100 -2.192510 6.469440 -0.000001 -176.709000 4.773190 -179.288000 -39.081100 -0.002282 -0.040193 0.003008 0.001687 11.037300 -40.985400 0.000008 0.000006 -4.211500 3.849580 -67.090800 -11.754300 -0.000006 -0.000006 -0.010565 0.275480 -5.380170
0.000000 0.000000 0.000000 0.000000 0.000000 -0.000000 0.489450 93.209000 -0.721857 87.455700 -2.402440 -0.595026 15.735700 0.000005 -0.000001 80.051000 88.547200 -78.576500 8.984550 -0.406207 -0.000000 -4.894060 -0.664293 2.922840 16.377300 -0.000001 -0.000001 5.524060 3.848110 -3.208380 6.456720 -0.000001 -0.000000 6.487480 4.319730 -1.460410 12.994200 -0.242716 4.980390 -92.684000 8.061880 -71.516900 5.348090 -0.000007 -0.000001 -72.619300 31.803000 1.053120 24.328600 0.000019 0.000005 12.445300 27.678100 -25.413100 22.291600 -0.000001 0.000005 -3.223140 4.954420 8.273990 12.994500 -0.242716 -4.980390 88.414000 5.061990 -72.577800 -5.348130 -0.000001 -0.000004 -72.630800 27.112700 1.444550 -24.328900 0.000322 -0.000009 4.054250 8.017040 -26.946000 -22.291500 -0.000108 -0.000004 0.119040 5.262640 1.096390 -2.192480 -6.469440 -0.000000 -178.055000 -3.364650 -2.674370 39.081100 -0.000007 -0.000012 0.148574 -0.495484 16.691900 40.985400 -0.000006 -0.000013 3.323820 8.265790 -70.303100 11.754300 -0.000000 0.000003 0.000298 0.162453 -9.988040 -2.192510 6.469440 -0.000001 -176.660000 4.813710 -179.293000 -39.081100 -0.002282 -0.040193 0.002853 0.002475 11.059400 -40.985400 0.000008 0.000006 -4.136300 3.909210 -67.083700 -11.754300 -0.000006 -0.000006 -0.010634 0.275981 -5.359690
0.000000 0.000000 0.000000 0.000000 0.000000 -0.000000 0.458631 93.216300 -0.794348 87.447800 -2.490910 -0.553259 15.735700 0.000005 -0.000001 80.533600 88.527900 -79.063000 8.984550 -0.406207 -0.000000 -4.852120 -0.645594 2.916160 16.377300 -0.000001 -0.000001 5.469780 3.871900 -3.165300 6.456720 -0.000001 -0.000000 6.370010 4.334570 -1.307710 12.994200 -0.242716 4.980390 -92.677200 8.054680 -71.545100 5.348090 -0.000007 -0.000001 -72.670200 31.720600 1.044160 24.328600 0.000019 0.000005 12.420000 27.722100 -25.334000 22.291600 -0.000001 0.000005 -3.278040 4.956280 8.235610 12.994500 -0.242716 -4.980390 88.413800 5.043530 -72.516400 -5.348130 -0.000001 -0.000004 -72.338300 26.008600 1.427740 -24.328900 0.000322 -0.000009 4.307440 8.029680 -28.340200 -22.291500 -0.000108 -0.000004 0.330825 5.263230 1.080370 -2.192480 -6.469440 -0.000000 -178.036000 -3.387370 -2.678040 39.081100 -0.000007 -0.000012 0.149421 -0.497672 16.712100 40.985400 -0.000006 -0.000013 3.284660 8.179940 -70.319700 11.754300 -0.000000 0.000003 0.000230 0.163665 -9.938840 -2.192510 6.469440 -0.000001 -176.628000 4.670640 -179.333000 -39.081100 -0.002282 -0.040193 0.003029 0.001571 11.105200 -40.985400 0.000008 0.000006 -4.137140 3.887960 -67.066000 -11.754300 -0.000006 -0.000006 -0.010872 0.277711 -5.288920
0.000000 0.000000 0.000000 0.000000 0.000000 -0.000000 0.418860 93.218600 -0.864251 87.412500 -2.558540 -0.522981 15.735700 0.000005 -0.000001 79.866100 88.517900 -78.394200 8.984550 -0.406207 -0.000000 -4.837720 -0.682835 2.917170 16.377300 -0.000001 -0.000001 5.438450 3.869700 -3.041870 6.456720 -0.000001 -0.000000 6.180070 4.409780 -1.129930 12.994200 -0.242716 4.980390 -92.681400 8.054710 -71.518600 5.348090 -0.000007 -0.000001 -72.661200 31.869400 1.103570 24.328600 0.000019 0.000005 12.392200 27.596200 -25.375600 22.291600 -0.000001 0.000005 -3.336590 4.954510 8.272190 12.994500 -0.242716 -4.980390 88.404200 5.053620 -72.450100 -5.348130 -0.000001 -0.000004 -72.001100 24.554100 1.448520 -24.328900 0.000322 -0.000009 4.779630 8.291030 -30.112400 -22.291500 -0.000108 -0.000004 0.207941 5.251550 1.392240 -2.192480 -6.469440 -0.000000 -177.972000 -3.360960 -2.728630 39.081100 -0.000007 -0.000012 0.150173 -0.497565 16.794900 40.985400 -0.000006 -0.000013 3.244800 8.134190 -70.301200 11.754300 -0.000000 0.000003 0.000292 0.162562 -9.983640 -2.192510 6.469440 -0.000001 -176.561000 4.614510 -179.360000 -39.081100 -0.002282 -0.040193 0.002879 0.002329 11.125400 -40.985400 0.000008 0.000006 -4.077020 3.880780 -67.043400 -11.754300 -0.000006 -0.000006 -0.010887 0.277820 -5.284440
0.000000 0.000000 0.000000 0.000000 0.000000 -0.000000 0.381084 93.220100 -0.927778 87.391400 -2.629930 -0.511842 15.735700 0.000005 -0.000001 79.538100 88.514200 -78.070900 8.984550 -0.406207 -0.000000 -4.833440 -0.700273 2.907160 16.377300 -0.000001 -0.000001 5.416250 3.861580 -2.910940 6.456720 -0.000001 -0.000000 5.956380 4.449230 -0.804822 12.994200 -0.242716 4.980390 -92.683600 8.056670 -71.508500 5.348090 -0.000007 -0.000001 -72.682900 31.891500 1.137040 24.328600 0.000019 0.000005 12.439200 27.701200 -25.384800 22.291600 -0.000001 0.000005 -3.279660 4.960410 8.150170 12.994500 -0.242716 -4.980390 88.380000 5.109640 -72.382800 -5.348130 -0.000001 -0.000004 -71.672300 22.240700 1.631730 -24.328900 0.000322 -0.000009 5.531250 8.719180 -32.576100 -22.291500 -0.000108 -0.000004 -0.151344 5.223800 2.116080 -2.192480 -6.469440 -0.000000 -177.935000 -3.312650 -2.791060 39.081100 -0.000007 -0.000012 0.151189 -0.498831 16.861700 40.985400 -0.000006 -0.000013 3.195680 8.009010 -70.260800 11.754300 -0.000000 0.000003 0.000381 0.160942 -10.049400 -2.192510 6.469440 -0.000001 -176.507000 4.499280 -179.424000 -39.081100 -0.002282 -0.040193 0.003289 0.000245 11.173800 -40.985400 0.000008 0.000006 -4.157600 3.834190 -66.948100 -11.754300 -0.000006 -0.000006 -0.010129 0.272269 -5.511560
0.000000 0.000000 0.000000 0.000000 0.000000 -0.000000 0.331607 93.221100 -1.005560 87.385600 -2.676280 -0.449747 15.735700 0.000005 -0.000001 79.343700 88.500000 -77.888800 8.984550 -0.406207 -0.000000 -4.807180 -0.713767 2.882110 16.377300 -0.000001 -0.000001 5.335460 3.832150 -2.683910 6.456720 -0.000001 -0.000000 5.768010 4.509430 -0.424889 12.994200 -0.242716 4.980390 -92.686800 8.053340 -71.480400 5.348090 -0.000007 -0.000001 -72.684000 31.816400 1.118170 24.328600 0.000019 0.000005 12.368000 27.580200 -25.342800 22.291600 -0.000001 0.000005 -3.253450 4.959360 8.171950 12.994500 -0.242716 -4.980390 88.362700 5.135310 -72.289700 -5.348130 -0.000001 -0.000004 -71.525600 19.047400 2.069950 -24.328900 0.000322 -0.000009 6.316190 8.806390 -35.870700 -22.291500 -0.000108 -0.000004 -0.533315 5.179830 3.220520 -2.192480 -6.469440 -0.000000 -177.903000 -3.263340 -2.805490 39.081100 -0.000007 -0.000012 0.151895 -0.498889 16.934000 40.985400 -0.000006 -0.000013 3.143630 7.909330 -70.268300 11.754300 -0.000000 0.000003 0.000353 0.161447 -10.028900 -2.192510 6.469440 -0.000001 -176.446000 4.442200 -179.435000 -39.081100 -0.002282 -0.040193 0.003845 -0.002561 11.228200 -40.985400 0.000008 0.000006 -3.916360 3.790850 -67.017700 -11.754300 -0.000006 -0.000006 -0.010580 0.275587 -5.375830
0.000000 0.000000 0.000000 0.000000 0.000000 -0.000000 0.280767 93.213400 -1.072480 87.341000 -2.781180 -0.382610 15.735700 0.000005 -0.000001 78.706800 88.481800 -77.235900 8.984550 -0.406207 -0.000000 -4.777170 -0.754983 2.912550 16.377300 -0.000001 -0.000001 5.244720 3.825110 -2.504230 6.456720 -0.000001 -0.000000 5.556740 4.614450 0.068932 12.994200 -0.242716 4.980390 -92.698400 8.068670 -71.438500 5.348090 -0.000007 -0.000001 -72.680000 31.883900 1.166250 24.328600 0.000019 0.000005 12.348700 27.511800 -25.357800 22.291600 -0.000001 0.000005 -3.206270 4.958520 8.189370 12.994500 -0.242716 -4.980390 88.363500 5.113480 -72.226800 -5.348130 -0.000001 -0.000004 -71.511400 15.089800 2.702310 -24.328900 0.000322 -0.000009 7.704490 9.178890 -40.304400 -22.291500 -0.000108 -0.000004 -1.162180 5.122800 4.586530 -2.192480 -6.469440 -0.000000 -177.830000 -3.213230 -2.872900 39.081100 -0.000007 -0.000012 0.155764 -0.505490 17.126600 40.985400 -0.000006 -0.000013 3.088660 7.777720 -70.314400 11.754300 -0.000000 0.000003 0.000293 0.162532 -9.984830 -2.192510 6.469440 -0.000001 -176.360000 4.391290 -179.471000 -39.081100 -0.002282 -0.040193 0.004769 -0.007134 11.349400 -40.985400 0.000008 0.000006 -3.858000 3.816640 -67.019100 -11.754300 -0.000006 -0.000006 -0.010169 0.272567 -5.499360
0.000000 0.000000 0.000000 0.000000 0.000000 -0.000000 0.229759 93.213600 -1.146010 87.342300 -2.884220 -0.326303 15.735700 0.000005 -0.000001 77.726600 88.469500 -76.240000 8.984550 -0.406207 -0.000000 -4.763010 -0.812504 2.941500 16.377300 -0.000001 -0.000001 5.144260 3.849870 -2.262220 6.456720 -0.000001 -0.000000 5.339750 4.786290 0.526679 12.994200 -0.242716 4.980390 -92.684300 8.032780 -71.452900 5.348090 -0.000007 -0.000001 -72.793600 31.797300 1.315590 24.328600 0.000019 0.000005 12.452100 27.601400 -25.482400 22.291600 -0.000001 0.000005 -3.184370 4.961260 8.132610 12.994500 -0.242716 -4.980390 88.356400 5.096900 -72.100100 -5.348130 -0.000001 -0.000004 -71.512500 11.183000 3.460740 -24.328900 0.000322 -0.000009 9.013150 8.853000 -45.869100 -22.291500 -0.000108 -0.000004 -1.080180 5.048030 6.280190 -2.192480 -6.469440 -0.000000 -177.815000 -3.075100 -2.876770 39.081100 -0.000007 -0.000012 0.157045 -0.507532 17.193800 40.985400 -0.000006 -0.000013 3.017180 7.566200 -70.359800 11.754300 -0.000000 0.000003 0.000378 0.161005 -10.046800 -2.192510 6.469440 -0.000001 -176.293000 4.211870 -179.493000 -39.081100 -0.002282 -0.040193 0.005821 -0.012298 11.420900 -40.985400 0.000008 0.000006 -3.613960 3.699030 -67.115600 -11.754300 -0.000006 -0.000006 -0.010587 0.275642 -5.373570
